<svg width="100" height="100" viewBox="0 0 100 100" fill="none" xmlns="http://www.w3.org/2000/svg">
<path d="M49.9456 93.8706C74.3271 93.8706 94.0923 74.249 94.0923 50.0447C94.0923 25.8403 74.3271 6.21875 49.9456 6.21875C25.564 6.21875 5.79883 25.8403 5.79883 50.0447C5.79883 74.249 25.564 93.8706 49.9456 93.8706Z" fill="#EEE4FD"/>
<ellipse cx="49.7438" cy="49.8221" rx="26.4216" ry="26.4432" fill="#A876F5"/>
<ellipse cx="49.7438" cy="49.8221" rx="26.4216" ry="26.4432" fill="#A876F5"/>
<path fill-rule="evenodd" clip-rule="evenodd" d="M61.623 42.7715L47.9458 60.2189L38.3847 51.9295L41.8986 47.8699L47.2012 52.4673L57.4007 39.4562L61.623 42.7715Z" fill="#FEFBFA"/>
<ellipse cx="71.6456" cy="21.3933" rx="3.22962" ry="3.24098" fill="#6B5A74"/>
<ellipse cx="97.4438" cy="26.8577" rx="2.18988" ry="2.19758" fill="#6B5A74"/>
<rect width="7.62542" height="13.5162" rx="3.81271" transform="matrix(-0.862333 -0.506342 0.508354 -0.861148 85.5137 29.6797)" fill="#FFDE91"/>
<path d="M82.9572 36.7151C82.6175 36.4648 82.6751 35.9409 83.061 35.7709L91.5579 32.0276C91.9448 31.8572 92.3712 32.1701 92.325 32.5904L91.307 41.8465C91.2608 42.2668 90.7766 42.4789 90.4361 42.2279L82.9572 36.7151Z" fill="#D3BAFA"/>
<ellipse cx="8.29581" cy="57.3287" rx="4.83097" ry="4.8443" fill="#D3BAFA"/>
<ellipse cx="18.1263" cy="67.7937" rx="2.63021" ry="2.63747" fill="#6B5A74"/>
<path d="M10.2363 70.4051C10.4909 70.5697 10.5644 70.9098 10.4005 71.1648L6.75609 76.8344C6.59218 77.0894 6.25291 77.1627 5.99833 76.9982L0.345373 73.3444C0.090785 73.1798 0.0172774 72.8397 0.18119 72.5847L3.82558 66.9151C3.98949 66.6601 4.32875 66.5868 4.58334 66.7513L10.2363 70.4051Z" fill="#FFDE91"/>
</svg>
